# xmcd
#
# Track frame offsets: 
#        150
#        13119
#        28310
#        42540
#        49451
#        64791
#        78377
#        93700
#        105250
#        131144
#        151601
#        166362
#        180845
#        193161
#        206984
#        218592
#        232836
#        245565
#        266749
#        288150
#        304668
#        314958
#
# Disc length: 4378 seconds
#
# Revision: 0
# Processed by: cddbd v1.5.2PL0 Copyright (c) Steve Scherf et al.
# Submitted via: ExactAudioCopy v1.2
#
DISCID=40111816
DTITLE=Marty Stuart - 2019 The Definitive Collection Vol. 2 [CD2]
DYEAR=2019
DGENRE=Country
TTITLE0=Country Boy Rock and Roll [feat. Kenny Vaughan]
TTITLE1=I'm Blue, I'm Lonesome
TTITLE2=Rough Around The Edges
TTITLE3=Hollywood Boogie
TTITLE4=Going, Going, Gone
TTITLE5=Matches
TTITLE6=Don't Leave Her Lonely Too Long
TTITLE7=Hey Porter
TTITLE8=Way Out West
TTITLE9=Confessin' The Blues [feat. BB King]
TTITLE10=A Matter Of Time [feat. Kenny Lovelace]
TTITLE11=Look At That Girl
TTITLE12=Mercy #1
TTITLE13=Tear The Woodpile Down [feat. Buck Trent]
TTITLE14=Holding On To Nothing [feat. Buck Trent]
TTITLE15=Jailhouse
TTITLE16=Please Don't Say Goodbye
TTITLE17=Badlands
TTITLE18=Trip To Little Big Horn
TTITLE19=Hangman
TTITLE20=Let Us Travel On [feat. Del McCoury]
TTITLE21=Mystery Train-Tiger Man
EXTD=
EXTT0=
EXTT1=
EXTT2=
EXTT3=
EXTT4=
EXTT5=
EXTT6=
EXTT7=
EXTT8=
EXTT9=
EXTT10=
EXTT11=
EXTT12=
EXTT13=
EXTT14=
EXTT15=
EXTT16=
EXTT17=
EXTT18=
EXTT19=
EXTT20=
EXTT21=
PLAYORDER=
